<?xml version="1.0" encoding="utf-8"?>
<!-- Generator: Adobe Adobe Illustrator 24.2.0, SVG Export Plug-In . SVG Version: 6.00 Build 0)  -->
<svg version="1.1" id="レイヤー_1" xmlns="http://www.w3.org/2000/svg" xmlns:xlink="http://www.w3.org/1999/xlink" x="0px"
	 y="0px" viewBox="0 0 283.46 283.46" style="enable-background:new 0 0 283.46 283.46;" xml:space="preserve">
<style type="text/css">
	.st0{clip-path:url(#SVGID_2_);stroke:#000000;stroke-width:5;stroke-linejoin:round;stroke-miterlimit:10;}
	.st1{clip-path:url(#SVGID_4_);stroke:#000000;stroke-width:5;stroke-linejoin:round;stroke-miterlimit:10;}
	.st2{clip-path:url(#SVGID_6_);stroke:#000000;stroke-width:5;stroke-linejoin:round;stroke-miterlimit:10;}
	.st3{clip-path:url(#SVGID_8_);stroke:#000000;stroke-width:5;stroke-linejoin:round;stroke-miterlimit:10;}
	.st4{fill:#FFFFFF;stroke:#000000;stroke-width:5;stroke-linejoin:round;stroke-miterlimit:10;}
	.st5{stroke:#000000;stroke-width:5;stroke-linejoin:round;stroke-miterlimit:10;}
</style>
<g>
	<g>
		<defs>
			<rect id="SVGID_1_" x="69.34" y="144.02" width="72.39" height="108.54"/>
		</defs>
		<clipPath id="SVGID_2_">
			<use xlink:href="#SVGID_1_"  style="overflow:visible;"/>
		</clipPath>
		<path class="st0" d="M145.45,146.24c-30.48,16.01-62.75,36.19-72.75,73c-1.7,6.25-0.58,10.21,0.79,14.08
			c2.33,6.57,8.21,11.14,14.31,13.96c19.33,8.95,37.63-5.86,55.93-13.73"/>
	</g>
	<g>
		<defs>
			<rect id="SVGID_3_" x="141.73" y="144.02" width="72.39" height="108.54"/>
		</defs>
		<clipPath id="SVGID_4_">
			<use xlink:href="#SVGID_3_"  style="overflow:visible;"/>
		</clipPath>
		<path class="st1" d="M138.01,146.24c30.48,16.01,62.75,36.19,72.75,73c1.7,6.25,0.58,10.21-0.79,14.08
			c-2.33,6.57-8.21,11.14-14.31,13.96c-19.33,8.95-37.63-5.86-55.93-13.73"/>
	</g>
</g>
<g>
	<g>
		<defs>
			<rect id="SVGID_5_" x="26.71" y="50.58" width="108.25" height="129.72"/>
		</defs>
		<clipPath id="SVGID_6_">
			<use xlink:href="#SVGID_5_"  style="overflow:visible;"/>
		</clipPath>
		<path class="st2" d="M38.44,114.14c-11.71,5.56-12.02,35.48-2.4,50.79c4.19,6.67,11.11,12.72,19.63,12.86
			c11.57,0.19,20.35-10.58,22.59-20.98c3.1-14.37-1.56-29.85-13.41-39.37c-4.94-3.97-12.24-5.02-18.91-4.7
			S37.31,114.78,38.44,114.14z"/>
		<path class="st2" d="M84.48,82.4c-1.66,9.94-0.41,26.87,6.68,34.52s20.13,10.74,28.98,5.16c3.14-1.98,5.54-4.83,7.49-7.87
			c8.73-13.68,4.75-38.62-4.92-51.96c-4.72-6.52-9.4-9.82-17.71-9.06C96.59,53.96,86.05,73.02,84.48,82.4z"/>
	</g>
	<g>
		<defs>
			<rect id="SVGID_7_" x="148.51" y="50.58" width="108.25" height="129.72"/>
		</defs>
		<clipPath id="SVGID_8_">
			<use xlink:href="#SVGID_7_"  style="overflow:visible;"/>
		</clipPath>
		<path class="st3" d="M245.02,114.14c11.71,5.56,12.02,35.48,2.4,50.79c-4.19,6.67-11.11,12.72-19.63,12.86
			c-11.57,0.19-20.35-10.58-22.59-20.98c-3.1-14.37,1.56-29.85,13.41-39.37c4.94-3.97,12.24-5.02,18.91-4.7
			C244.19,113.08,246.15,114.78,245.02,114.14z"/>
		<path class="st3" d="M198.99,82.4c1.66,9.94,0.41,26.87-6.68,34.52c-7.09,7.65-20.13,10.74-28.98,5.16
			c-3.14-1.98-5.54-4.83-7.49-7.87c-8.73-13.68-4.75-38.62,4.92-51.96c4.72-6.52,9.4-9.82,17.71-9.06
			C186.88,53.96,197.42,73.02,198.99,82.4z"/>
	</g>
</g>
<path class="st4" d="M195.28,195.64"/>
<path class="st5" d="M141.73,149.03c-0.79,16.74-17.19,89.77,0,85.75"/>
<path d="M145.84,171.74c1.28-3.45-4.21-4.91-5.5-1.52c-2.05,5.4-3.47,12.46-0.99,17.96c-2.18,14.65,1.19,29.27,0.33,43.98
	c-0.22,3.69,5.25,3.53,5.65,0c1.64-14.47-2.41-29.01,0.16-43.46c0.23-1.28-0.27-2.31-1.05-2.99
	C143.83,180.78,144.04,176.58,145.84,171.74z"/>
<path d="M144.11,148.22c-0.12-0.3-0.29-0.57-0.53-0.88c-0.65-0.83-1.86-0.72-2.69-0.35c-0.44,0.2-0.73,0.58-0.91,1.01
	c-1.24,0.88-1.28,2.96-0.12,3.91c0,0.14,0.01,0.28,0.01,0.42c-0.04,1.25,1.13,2.44,2.38,2.38c1.13-0.05,2.1-0.81,2.33-1.89
	C146.61,152.03,146.46,148.61,144.11,148.22z"/>
</svg>
